# Aspose.3D Wavefront OBJ Exporter
# Copyright 2004-2021 Aspose Pty Ltd.
# File created: 12/10/2021 13:30:13

mtllib material.lib

#
# object Node #0
#

v 0.09841537552093982 0.04800462275647649 0.36872575575113216
v -0.2110310726067972 0.04800461155892666 0.33857645814661548
v -0.2110310726067972 0.04800462275647649 0.36872575575113216
v 0.09841537552093982 0.04800462275647649 0.36872575575113216
v 0.09841537552093982 0.04800461155892666 0.33857645814661548
v -0.2110310726067972 0.04800461155892666 0.33857645814661548
v -0.2110310726067972 -0.10929618699075038 0.36872581417317824
v 0.09841537552093982 -0.10929619818830022 0.33857651656866156
v 0.09841537552093982 -0.10929618699075038 0.36872581417317824
v -0.2110310726067972 -0.10929619818830022 0.33857651656866156
v 0.09841537552093982 -0.10929618699075038 0.36872581417317824
v 0.09841537552093982 0.04800461155892666 0.33857645814661548
v 0.09841537552093982 0.04800462275647649 0.36872575575113216
v 0.09841537552093982 -0.10929619818830022 0.33857651656866156
v -0.2110310726067972 0.04800462275647649 0.36872575575113216
v -0.2110310726067972 -0.10929619818830022 0.33857651656866156
v -0.2110310726067972 -0.10929618699075038 0.36872581417317824
v -0.2110310726067972 0.04800461155892666 0.33857645814661548
v -0.2110310726067972 0.04800462275647649 0.36872575575113216
v 0.09841537552093982 -0.10929618699075038 0.36872581417317824
v 0.09841537552093982 0.04800462275647649 0.36872575575113216
v -0.2110310726067972 -0.10929618699075038 0.36872581417317824
v -0.2110310726067972 -0.10929619818830022 0.33857651656866156
v 0.09841537552093982 0.04800461155892666 0.33857645814661548
v 0.09841537552093982 -0.10929619818830022 0.33857651656866156
v -0.2110310726067972 0.04800461155892666 0.33857645814661548
# 26 vertices

vn 0 0.99999999999993088 -3.714033396384764E-07
vn 0 0.99999999999993088 -3.714033396384764E-07
vn 0 0.99999999999993088 -3.714033396384764E-07
vn 0 0.99999999999993088 -3.714033396384764E-07
vn 0 0.99999999999993088 -3.714033396384764E-07
vn 0 0.99999999999993088 -3.714033396384764E-07
vn 0 -0.99999999999993088 3.714033396384764E-07
vn 0 -0.99999999999993088 3.714033396384764E-07
vn 0 -0.99999999999993088 3.714033396384764E-07
vn 0 -0.99999999999993088 3.714033396384764E-07
vn 1 0 0
vn 1 0 0
vn 1 0 0
vn 1 0 0
vn -1 0 0
vn -1 0 0
vn -1 0 0
vn -1 0 0
vn 0 3.714033396384764E-07 0.99999999999993088
vn 0 3.714033396384764E-07 0.99999999999993088
vn 0 3.714033396384764E-07 0.99999999999993088
vn 0 3.714033396384764E-07 0.99999999999993088
vn 0 -3.714033396384764E-07 -0.99999999999993088
vn 0 -3.714033396384764E-07 -0.99999999999993088
vn 0 -3.714033396384764E-07 -0.99999999999993088
vn 0 -3.714033396384764E-07 -0.99999999999993088
# 26 vertex normals

vt 0.64638137817382816 -0.96173608303070064 0
vt 0.11307720094919204 -0.99980175495147712 0
vt 0.23150628805160524 -0.83810722827911376 0
vt 0.13088801503181458 -0.01976504921913147 0
vt 0.2196281999349594 -0.22669555246829988 0
vt 2.2739171981811523E-05 -0.6677004098892212 0
vt 0.6733465790748596 -0.67217063903808592 0
vt 0.37923386693000792 -0.23910030722618104 0
vt 0.47549471259117128 -0.0002180039882659912 0
vt 0.3258938193321228 -0.62409681081771848 0
vt 0.47549471259117128 -0.0002180039882659912 0
vt 0.2196281999349594 -0.22669555246829988 0
vt 0.13088801503181458 -0.01976504921913147 0
vt 0.37923386693000792 -0.23910030722618104 0
vt 0.23150628805160524 -0.83810722827911376 0
vt 0.00073013373184949 -0.75905120372772224 0
vt 0.17810158431529998 -0.64708387851715088 0
vt 0.11307720094919204 -0.99980175495147712 0
vt 0.23150628805160524 -0.83810722827911376 0
vt 0.65449315309524536 -0.6728622913360596 0
vt 0.64638137817382816 -0.96173608303070064 0
vt 0.17810158431529998 -0.64708387851715088 0
vt 0.3258938193321228 -0.62409681081771848 0
vt 0.2196281999349594 -0.22669555246829988 0
vt 0.37923386693000792 -0.23910030722618104 0
vt 2.2739171981811523E-05 -0.6677004098892212 0
# 26 texture coords

g Node #0
usemtl mat_1775842
s 1
f 1/1/1 2/2/2 3/3/3
f 4/4/4 5/5/5 6/6/6
f 7/7/7 8/8/8 9/9/9
f 7/7/7 10/10/10 8/8/8
f 11/11/11 12/12/12 13/13/13
f 11/11/11 14/14/14 12/12/12
f 15/15/15 16/16/16 17/17/17
f 15/15/15 18/18/18 16/16/16
f 19/19/19 20/20/20 21/21/21
f 19/19/19 22/22/22 20/20/20
f 23/23/23 24/24/24 25/25/25
f 23/23/23 26/26/26 24/24/24
#12 polygons

